<?xml version="1.0" standalone="no"?>
<!DOCTYPE svg PUBLIC "-//W3C//DTD SVG 20010904//EN"
 "http://www.w3.org/TR/2001/REC-SVG-20010904/DTD/svg10.dtd">
<svg version="1.0" xmlns="http://www.w3.org/2000/svg"
 width="236.000000pt" height="187.000000pt" viewBox="0 0 236.000000 187.000000"
 preserveAspectRatio="xMidYMid meet">

<g transform="translate(0.000000,187.000000) scale(0.100000,-0.100000)"
fill="#000000" stroke="none">
<path d="M791 1661 l-12 -89 -62 -22 c-34 -12 -72 -29 -85 -37 -22 -14 -27
-11 -96 40 l-73 55 -97 -97 -96 -97 53 -72 54 -72 -24 -47 c-13 -26 -28 -64
-35 -84 -12 -41 -15 -42 -125 -55 l-63 -7 0 -137 0 -138 33 -6 c17 -3 56 -8
85 -12 45 -6 55 -11 64 -33 6 -14 23 -53 38 -87 l27 -60 -23 -30 c-13 -16 -37
-47 -53 -70 l-30 -41 98 -97 97 -97 68 51 c75 57 60 57 181 6 l60 -25 14 -85
15 -86 136 0 136 0 15 87 c14 85 14 86 49 98 19 7 56 22 82 34 26 11 50 21 53
21 3 0 36 -23 72 -50 l67 -51 97 97 98 97 -30 41 c-16 23 -40 54 -53 70 l-23
30 28 60 29 61 -122 3 c-108 2 -123 1 -132 -15 -28 -51 -115 -126 -185 -161
-72 -36 -79 -37 -180 -37 -98 0 -111 2 -174 32 -133 63 -225 183 -250 327 -39
227 123 445 361 487 149 26 325 -51 418 -184 l19 -28 122 3 122 3 -28 58 -28
58 54 71 53 72 -96 97 -97 97 -73 -54 c-69 -51 -75 -54 -96 -40 -13 8 -51 24
-85 36 l-62 22 -12 89 -12 89 -137 0 -137 0 -12 -89z"/>
<path d="M1877 1356 c4 -5 -1 -7 -10 -3 -10 3 -17 2 -17 -3 0 -5 8 -11 18 -13
16 -4 16 -5 -1 -6 -11 -1 -16 -6 -12 -13 4 -7 -1 -4 -10 7 -17 20 -17 20 -10
-4 5 -17 4 -22 -5 -16 -10 6 -11 1 -6 -20 6 -24 1 -34 -34 -70 -32 -32 -39
-46 -33 -61 8 -19 9 -19 26 -2 9 10 15 18 12 18 -3 0 0 6 7 14 7 8 16 12 19
10 4 -2 12 3 19 11 7 8 29 15 50 15 21 0 47 8 58 18 25 20 40 72 22 72 -6 0
-8 5 -5 11 12 19 -24 47 -60 46 -19 -1 -31 -5 -28 -11z m56 -22 c-7 -4 -9 -14
-3 -34 5 -18 4 -32 -3 -40 -10 -10 -7 -10 11 -1 30 16 28 7 -4 -14 -15 -9 -23
-12 -20 -6 5 7 -1 11 -14 11 -13 0 -18 -4 -15 -11 4 -6 -2 -5 -14 3 -23 14
-36 39 -19 35 6 -1 14 9 17 23 4 14 17 27 31 31 29 8 51 10 33 3z m23 -11 c-4
-9 -1 -20 6 -25 10 -6 8 -8 -4 -8 -10 0 -18 4 -18 9 0 14 11 41 17 41 3 0 2
-8 -1 -17z m-120 -95 c4 -7 3 -10 -1 -5 -5 4 -20 -3 -34 -15 l-26 -23 24 28
c28 31 28 31 37 15z"/>
<path d="M847 1238 c-26 -7 -37 -15 -33 -24 7 -17 -10 -28 -20 -13 -5 8 -3 9
6 4 9 -6 11 -4 5 5 -6 10 -11 9 -22 -5 -10 -15 -10 -21 0 -28 9 -6 8 -7 -3 -4
-8 2 -14 9 -13 15 2 6 -4 9 -12 6 -19 -8 -19 -18 -1 -34 8 -6 12 -19 9 -28 -6
-15 -5 -15 10 -3 9 7 14 18 10 24 -3 6 -1 7 6 3 8 -5 5 -15 -11 -35 l-23 -28
-25 27 c-14 14 -24 24 -23 21 2 -2 -6 -10 -16 -18 -49 -34 -74 -178 -49 -278
l10 -40 21 25 c12 15 18 18 14 8 -3 -10 -2 -20 3 -23 6 -4 10 -11 10 -18 0 -6
-6 -3 -13 7 -13 17 -14 18 -20 2 -5 -11 -3 -15 5 -10 8 5 9 2 5 -9 -4 -10 4
-28 19 -47 31 -36 84 -75 84 -61 0 5 -9 13 -21 16 -11 4 -18 9 -16 12 10 9 47
-18 47 -34 0 -9 3 -14 6 -10 4 3 13 -1 21 -9 9 -8 21 -13 29 -10 7 3 14 0 17
-7 5 -15 149 -15 154 0 3 7 10 10 16 8 19 -7 38 10 31 28 -3 9 -9 17 -13 17
-4 0 -16 7 -27 15 -17 15 -16 15 12 1 17 -8 35 -23 38 -33 6 -15 8 -14 19 7 7
13 19 25 27 27 10 3 8 -1 -4 -11 -11 -9 -17 -18 -14 -21 9 -10 89 67 84 82 -3
8 -2 11 3 8 5 -3 13 0 17 6 4 8 3 9 -4 5 -7 -4 -12 -2 -12 4 0 6 -4 8 -10 5
-18 -11 -11 11 9 29 19 18 39 7 26 -14 -4 -7 91 -10 294 -10 177 1 303 5 306
11 4 5 12 9 18 9 8 0 8 -3 -1 -9 -10 -6 -6 -15 18 -35 17 -14 37 -26 43 -26
30 0 55 13 51 25 -3 7 0 16 7 21 8 5 10 3 4 -6 -5 -9 -4 -11 3 -6 8 5 9 13 3
24 -5 9 -9 20 -10 25 -1 4 -1 8 -2 10 -5 18 -6 37 -1 32 4 -4 7 -10 8 -13 0
-4 6 -18 12 -32 10 -23 11 -23 11 -4 1 12 -8 32 -18 46 -15 19 -28 24 -59 23
-22 0 -47 -7 -56 -14 -15 -13 -15 -16 -1 -31 13 -14 13 -17 0 -17 -8 0 -12 4
-9 9 3 4 -152 8 -345 8 -332 0 -351 -1 -360 -19 -6 -10 -8 -21 -6 -25 3 -3 2
-4 -1 -1 -4 2 -25 -11 -47 -30 -22 -19 -56 -38 -76 -41 -28 -6 -32 -8 -16 -14
10 -4 -10 -7 -45 -7 -40 0 -57 3 -45 8 17 7 17 8 -6 8 -14 1 -45 15 -67 31
-23 17 -42 28 -42 25 0 -3 -6 0 -14 7 -8 7 -12 16 -10 19 2 3 -4 15 -12 25 -9
10 -13 13 -9 6 4 -7 -1 -24 -10 -38 -10 -15 -13 -33 -9 -46 5 -18 4 -19 -9 -7
-14 13 -14 17 2 44 13 24 16 53 15 149 -1 65 1 113 6 107 5 -9 9 -8 14 4 3 9
3 22 -1 27 -3 7 -1 8 5 4 6 -4 18 5 28 19 9 13 20 23 24 20 4 -3 7 8 6 24 -1
17 2 28 6 25 4 -3 8 -13 9 -22 0 -12 3 -11 9 6 5 12 12 22 16 22 3 0 3 -7 0
-16 -5 -13 -2 -14 11 -8 10 4 43 10 73 14 30 4 49 8 41 9 -8 0 -11 4 -8 8 4 3
15 -1 24 -9 10 -9 25 -18 33 -20 21 -7 52 10 44 24 -4 6 -3 8 4 5 5 -4 17 -4
26 -1 12 5 13 10 5 25 -5 11 -14 17 -20 14 -5 -4 -6 -11 -3 -17 4 -7 2 -8 -4
-4 -6 4 -9 13 -6 20 11 29 -137 46 -219 24z m-133 -129 c-2 -4 0 -10 6 -14 13
-8 3 -25 -13 -25 -7 0 -6 4 3 10 8 5 12 10 8 11 -5 1 -12 3 -18 4 -5 1 -13 3
-16 4 -11 2 6 18 20 18 8 0 13 -4 10 -8z m-57 -91 c-3 -8 -6 -5 -6 6 -1 11 2
17 5 13 3 -3 4 -12 1 -19z m20 -10 c-3 -7 -5 -2 -5 12 0 14 2 19 5 13 2 -7 2
-19 0 -25z m20 10 c-3 -8 -6 -5 -6 6 -1 11 2 17 5 13 3 -3 4 -12 1 -19z m10
-80 c-3 -8 -6 -5 -6 6 -1 11 2 17 5 13 3 -3 4 -12 1 -19z m-37 -51 c0 -7 -4
-6 -10 3 -8 13 -10 12 -10 -4 0 -11 -3 -17 -6 -13 -4 3 -4 13 0 22 6 18 26 11
26 -8z m40 -22 c0 -5 -5 -3 -10 5 -5 8 -10 20 -10 25 0 6 5 3 10 -5 5 -8 10
-19 10 -25z m1221 7 c-6 -2 -9 -7 -7 -10 2 -4 -9 -7 -24 -7 -15 0 -26 3 -23 8
7 12 -12 8 -27 -5 -12 -11 -12 -10 -3 2 7 10 28 15 53 15 23 0 37 -1 31 -3z
m-13 -34 c7 -7 12 -20 12 -30 0 -13 -8 -18 -30 -18 -22 0 -30 5 -30 18 0 17
18 42 30 42 3 0 11 -5 18 -12z m-104 -20 c-3 -4 -11 -5 -19 -1 -21 7 -19 12 4
10 11 0 18 -5 15 -9z m-559 -8 c3 -5 -1 -10 -9 -10 -9 0 -16 5 -16 10 0 6 4
10 9 10 6 0 13 -4 16 -10z m-101 -16 c3 -8 2 -12 -4 -9 -6 3 -10 10 -10 16 0
14 7 11 14 -7z m703 -3 c0 -11 -5 -18 -9 -15 -4 3 -5 11 -1 19 7 21 12 19 10
-4z m-1073 -26 c5 0 11 -7 13 -15 3 -9 1 -11 -4 -5 -11 14 -43 18 -43 5 0 -5
-5 -10 -10 -10 -6 0 -5 8 2 19 7 11 17 17 23 13 5 -4 14 -7 19 -7z m346 3 c0
-5 4 -7 9 -4 12 8 34 -21 26 -34 -3 -5 -14 -9 -23 -9 -15 1 -15 2 1 6 9 2 17
8 17 13 0 4 -10 6 -22 2 -15 -4 -19 -2 -13 8 4 7 4 11 -1 8 -5 -2 -24 -10 -41
-17 -19 -7 -30 -18 -26 -24 4 -6 1 -7 -6 -2 -9 5 -3 15 20 34 32 28 59 36 59
19z m781 2 c9 13 10 13 6 0 -2 -8 -10 -15 -17 -15 -7 0 -15 7 -17 15 -4 13 -3
13 6 0 10 -13 12 -13 22 0z m-1133 -47 c-10 -2 -28 -2 -40 0 -13 2 -5 4 17 4
22 1 32 -1 23 -4z m342 3 c0 -2 -7 -6 -15 -10 -8 -3 -15 -1 -15 4 0 6 7 10 15
10 8 0 15 -2 15 -4z m-261 -20 c-2 -2 -15 -9 -29 -15 -24 -11 -24 -11 -6 3 16
13 49 24 35 12z m164 -23 c-7 -2 -21 -2 -30 0 -10 3 -4 5 12 5 17 0 24 -2 18
-5z m-70 -40 c-7 -2 -19 -2 -25 0 -7 3 -2 5 12 5 14 0 19 -2 13 -5z"/>
<path d="M1115 1190 c3 -5 -5 -15 -19 -22 -14 -6 -26 -18 -26 -25 0 -9 -5 -11
-12 -7 -8 4 -10 3 -5 -2 5 -5 14 -9 20 -9 7 0 26 -21 42 -47 l30 -48 261 0
261 0 23 25 c13 14 21 28 17 31 -4 4 -9 0 -13 -9 -4 -12 -11 -14 -31 -6 -13 5
-121 9 -239 9 -180 0 -214 2 -214 14 0 8 -9 21 -20 29 -11 8 -17 17 -12 22 4
5 1 5 -5 1 -8 -4 -13 -1 -13 8 0 9 -5 16 -10 16 -7 0 -7 -6 -2 -17 5 -10 7
-23 5 -30 -3 -7 3 -10 15 -6 29 7 35 -12 9 -33 -12 -10 -19 -15 -14 -10 4 5 0
17 -8 26 -9 10 -15 21 -14 26 4 22 -2 35 -13 28 -10 -6 -10 -4 0 7 16 17 15
26 -4 33 -8 3 -12 2 -9 -4z m-17 -42 c-2 -7 4 -12 13 -12 11 1 17 -7 17 -21 0
-23 -1 -23 -23 3 -13 15 -21 30 -18 34 7 12 13 9 11 -4z m528 -87 c-4 -5 -3
-11 1 -14 5 -2 2 -2 -5 0 -8 1 -102 4 -210 5 l-197 2 205 6 c113 3 206 7 208
8 2 1 1 -2 -2 -7z m44 -13 c0 -6 -6 -5 -15 2 -8 7 -15 14 -15 16 0 2 7 1 15
-2 8 -4 15 -11 15 -16z"/>
<path d="M720 1157 c0 -8 8 -21 18 -30 17 -16 19 -16 17 1 -2 34 -35 61 -35
29z"/>
<path d="M1695 1120 c-27 -28 -34 -40 -23 -40 9 0 20 5 23 11 4 6 13 8 21 5 8
-3 14 1 14 10 0 8 5 12 10 9 6 -4 10 5 10 19 0 35 -9 33 -55 -14z m45 27 c0
-2 -10 -12 -22 -23 l-23 -19 19 23 c18 21 26 27 26 19z"/>
<path d="M2086 1111 c-10 -11 -12 -21 -6 -27 5 -5 -42 -8 -127 -6 -106 3 -134
1 -131 -9 2 -7 10 -15 18 -17 7 -3 10 -1 7 4 -3 5 37 9 88 9 51 0 91 -3 88 -7
-7 -13 12 -9 25 4 9 9 12 9 12 0 0 -6 7 -9 18 -5 14 5 15 3 5 -8 -17 -18 -16
-39 2 -39 7 0 18 -7 23 -16 12 -22 87 -11 78 11 -3 8 0 17 6 21 7 5 8 2 4 -7
-4 -8 0 -5 8 5 9 11 16 27 16 35 0 14 -2 14 -11 1 -8 -12 -9 -9 -5 11 4 18 0
31 -12 41 -24 21 -87 20 -106 -1z m104 -6 c15 -9 12 -22 -5 -22 -8 0 -11 5 -8
10 3 6 1 7 -5 3 -6 -3 -21 -2 -34 3 -15 6 -31 5 -44 -2 -16 -9 -17 -8 -6 5 12
15 79 17 102 3z m-31 -24 c9 -6 11 -18 7 -35 -4 -15 -11 -24 -16 -21 -5 3 -18
1 -28 -4 -17 -9 -19 -7 -15 17 9 55 20 63 52 43z m22 -44 c-10 -9 -11 -8 -5 6
3 10 9 15 12 12 3 -3 0 -11 -7 -18z m-17 -36 c-8 -8 -43 -8 -38 0 2 4 13 7 24
6 10 -1 17 -3 14 -6z"/>
<path d="M1165 1100 c4 -6 11 -8 16 -5 14 9 11 15 -7 15 -8 0 -12 -5 -9 -10z"/>
<path d="M896 1083 c-15 -4 -16 -7 -5 -15 11 -7 9 -9 -7 -5 -13 3 -25 -3 -33
-15 -7 -11 -17 -16 -24 -11 -7 4 -7 0 2 -10 8 -10 11 -20 7 -24 -3 -3 -6 -1
-6 5 0 7 -5 12 -11 12 -5 0 -8 -4 -5 -9 3 -5 -1 -14 -9 -21 -17 -14 -21 -90
-4 -90 5 0 7 -4 4 -10 -3 -5 -1 -18 5 -27 10 -17 10 -17 8 1 -2 10 3 20 10 22
7 1 8 0 2 -3 -6 -3 -7 -11 0 -22 5 -10 7 -21 4 -24 -14 -13 63 -47 106 -47 43
0 120 34 106 47 -3 3 -1 14 4 24 7 12 6 19 -3 22 -9 4 -9 6 0 6 7 1 11 7 9 14
-1 6 -1 10 1 7 1 -3 150 -4 330 -2 321 3 353 6 353 36 0 6 -5 4 -10 -4 -8 -13
-11 -13 -22 -1 -8 9 -9 11 -1 7 6 -3 14 -2 18 4 4 6 11 7 17 4 11 -7 78 54 78
70 0 7 41 10 120 8 68 -2 120 1 120 6 0 5 -51 9 -114 9 -63 1 -119 4 -125 7
-6 4 -19 2 -28 -4 -16 -10 -15 -11 5 -7 12 3 20 1 16 -4 -3 -5 -14 -9 -25 -9
-10 0 -19 -3 -19 -7 0 -5 -10 -19 -21 -33 -11 -14 -17 -18 -13 -10 5 11 2 10
-13 -2 -18 -16 -48 -18 -323 -18 -296 0 -303 0 -321 21 -10 12 -16 26 -13 30
3 5 0 9 -6 9 -6 0 -8 5 -5 10 3 6 -1 10 -10 10 -8 0 -18 6 -21 14 -3 8 -14 12
-27 9 -16 -3 -18 -2 -9 5 24 16 -43 27 -92 15z m-34 -55 c-7 -7 -12 -8 -12 -2
0 14 12 26 19 19 2 -3 -1 -11 -7 -17z m134 13 c-5 -8 16 -23 36 -25 3 -1 10
-5 15 -10 5 -5 3 -6 -5 -2 -12 7 -11 -15 4 -62 12 -40 -56 -112 -106 -112 -45
0 -96 45 -101 90 -8 75 19 109 93 120 29 4 57 8 61 9 5 0 6 -3 3 -8z m29 -1
c3 -5 1 -10 -4 -10 -6 0 -11 5 -11 10 0 6 2 10 4 10 3 0 8 -4 11 -10z m760
-51 c-10 -15 -25 -10 -19 6 4 8 10 12 15 9 5 -3 7 -10 4 -15z m-955 -25 c0 -8
-4 -12 -10 -9 -5 3 -10 10 -10 16 0 5 5 9 10 9 6 0 10 -7 10 -16z m237 -16 c2
-18 0 -20 -7 -8 -12 18 -13 30 -2 30 4 0 9 -10 9 -22z m-246 -33 c5 4 9 1 9
-5 0 -20 -25 -4 -26 16 -1 16 0 16 3 1 3 -9 9 -15 14 -12z m299 31 c0 -2 -8
-10 -17 -17 -16 -13 -17 -12 -4 4 13 16 21 21 21 13z m-225 -124 c11 -17 13
-22 4 -15 -9 7 -20 9 -24 5 -5 -4 -5 -2 -1 5 4 7 -2 18 -14 25 -11 7 -20 16
-20 20 0 13 34 -12 55 -40z m135 28 c-24 -15 -36 -11 -14 4 10 8 21 12 24 10
2 -3 -2 -9 -10 -14z m-24 -32 c4 -7 4 -10 -1 -6 -4 4 -15 2 -24 -5 -14 -11
-14 -10 -2 6 16 20 18 21 27 5z"/>
<path d="M1063 868 c-2 -18 0 -20 7 -8 12 18 13 30 2 30 -4 0 -9 -10 -9 -22z"/>
<path d="M1197 813 c-4 -3 -7 -11 -7 -17 0 -6 5 -5 12 2 6 6 9 14 7 17 -3 3
-9 2 -12 -2z"/>
</g>
</svg>
